<?xml version="1.0" encoding="UTF-8" standalone="no"?>
<svg
   xmlns:dc="http://purl.org/dc/elements/1.1/"
   xmlns:cc="http://creativecommons.org/ns#"
   xmlns:rdf="http://www.w3.org/1999/02/22-rdf-syntax-ns#"
   xmlns:svg="http://www.w3.org/2000/svg"
   xmlns="http://www.w3.org/2000/svg"
   xmlns:sodipodi="http://sodipodi.sourceforge.net/DTD/sodipodi-0.dtd"
   xmlns:inkscape="http://www.inkscape.org/namespaces/inkscape"
   width="184.45599"
   height="50"
   viewBox="0 0 48.80398 13.229167"
   version="1.1"
   id="svg966"
   inkscape:version="1.0.1 (1.0.1+r75)"
   sodipodi:docname="logo.svg">
  <defs
     id="defs960" />
  <sodipodi:namedview
     id="base"
     pagecolor="#ffffff"
     bordercolor="#666666"
     borderopacity="1.0"
     inkscape:pageopacity="0.0"
     inkscape:pageshadow="2"
     inkscape:zoom="3.959798"
     inkscape:cx="106.34693"
     inkscape:cy="66.790159"
     inkscape:document-units="px"
     inkscape:current-layer="layer1"
     inkscape:document-rotation="0"
     showgrid="false"
     units="px"
     inkscape:window-width="1600"
     inkscape:window-height="837"
     inkscape:window-x="1600"
     inkscape:window-y="30"
     inkscape:window-maximized="1" />
  <metadata
     id="metadata963">
    <rdf:RDF>
      <cc:Work
         rdf:about="">
        <dc:format>image/svg+xml</dc:format>
        <dc:type
           rdf:resource="http://purl.org/dc/dcmitype/StillImage" />
        <dc:title></dc:title>
      </cc:Work>
    </rdf:RDF>
  </metadata>
  <g
     inkscape:label="Layer 1"
     inkscape:groupmode="layer"
     id="layer1">
    <g
       id="g887"
       transform="matrix(2.4999999,0,0,2.4999999,2.2368155e-5,1.8953147e-7)">
      <g
         aria-label="Notes"
         id="text919"
         style="font-style:normal;font-weight:normal;font-size:4.30829px;line-height:1.25;font-family:sans-serif;letter-spacing:0px;word-spacing:0px;fill:none;fill-opacity:1;stroke:#ffc815;stroke-width:0.107678;stroke-miterlimit:4;stroke-dasharray:none;stroke-opacity:1">
        <path
           style="color:#000000;font-style:normal;font-variant:normal;font-weight:normal;font-stretch:normal;font-size:4.30829px;line-height:1.25;font-family:'Cocogoose Pro Block';-inkscape-font-specification:'Cocogoose Pro Block, Normal';font-variant-ligatures:normal;font-variant-position:normal;font-variant-caps:normal;font-variant-numeric:normal;font-variant-alternates:normal;font-variant-east-asian:normal;font-feature-settings:normal;font-variation-settings:normal;text-indent:0;text-align:start;text-decoration:none;text-decoration-line:none;text-decoration-style:solid;text-decoration-color:#000000;letter-spacing:0px;word-spacing:0px;text-transform:none;writing-mode:lr-tb;direction:ltr;text-orientation:mixed;dominant-baseline:auto;baseline-shift:baseline;text-anchor:start;white-space:normal;shape-padding:0;shape-margin:0;inline-size:0;clip-rule:nonzero;display:inline;overflow:visible;visibility:visible;opacity:1;isolation:auto;mix-blend-mode:normal;color-interpolation:sRGB;color-interpolation-filters:linearRGB;solid-color:#000000;solid-opacity:1;vector-effect:none;fill:#ffc815;fill-opacity:1;fill-rule:nonzero;stroke:none;stroke-width:0.107678;stroke-linecap:butt;stroke-linejoin:miter;stroke-miterlimit:4;stroke-dasharray:none;stroke-dashoffset:0;stroke-opacity:1;color-rendering:auto;image-rendering:auto;shape-rendering:auto;text-rendering:auto;enable-background:accumulate;stop-color:#000000;stop-opacity:1"
           d="m 6.2441406,1.0800781 c -0.054521,0 -0.1066681,0.021353 -0.1386718,0.0625 C 6.0777173,1.1769798 6.0625,1.2209278 6.0625,1.265625 v 3.0078125 c 0,0.051607 0.012868,0.1007586 0.046875,0.1347656 0.034007,0.034007 0.083158,0.046875 0.1347656,0.046875 h 0.6015625 c 0.052617,0 0.098412,-0.010709 0.1347657,-0.039063 h 0.00195 c 0.041282,-0.03233 0.054687,-0.085458 0.054687,-0.1425781 V 2.7246094 l 0.9707031,1.5957031 c 0.025094,0.042559 0.060024,0.076952 0.1015625,0.099609 0.041099,0.02323 0.084356,0.035156 0.1289062,0.035156 H 8.869137 c 0.054623,0 0.1042731,-0.011501 0.140625,-0.044922 C 9.0461176,4.3767359 9.0625,4.3258319 9.0625,4.2734375 V 1.265625 C 9.0625,1.238526 9.05463,1.21092 9.041016,1.1875 V 1.18555 C 9.0294655,1.164754 9.0143773,1.1475318 8.9960938,1.1328125 8.9789171,1.1175479 8.9587821,1.1059658 8.9375,1.0976562 8.9154495,1.0876329 8.8930735,1.0800781 8.8691406,1.0800781 H 8.2695312 c -0.054521,0 -0.1072621,0.020511 -0.140625,0.060547 -0.028518,0.034628 -0.042969,0.079669 -0.042969,0.125 V 2.7011719 L 7.1699219,1.21875 C 7.1451049,1.17798 7.1112099,1.145202 7.0722659,1.121094 7.0340039,1.095276 6.9886759,1.080078 6.9414065,1.080078 Z m -0.00586,0.1757813 h 0.00195 c -7.204e-4,1.749e-4 -0.00236,0 0.00391,0 h 0.6972656 c 0.014874,0 0.024699,0.00367 0.035156,0.011719 h 0.00195 l 0.00195,0.00195 c 0.013368,0.00859 0.025913,0.022646 0.039062,0.042969 l 1.2421946,2.005862 V 1.265625 c 0,-0.00504 -4.654e-4,-0.00505 0.00195,-0.00781 v -0.00195 h 0.00195 c -2.078e-4,2.672e-4 -0.0055,0 0.00391,0 h 0.5996094 c 0.0034,0 0.00623,-9.24e-5 0.013672,0.00586 l 0.00195,0.00195 c 0,0 0.00195,0.00195 0.00195,0.00195 v 3.0078125 c 0,0.00956 3.999e-4,0.00522 0.00195,0.00391 0.00155,-0.00131 -0.00317,0.00391 -0.019531,0.00391 h -0.630848 c -0.034411,0 -0.055453,-0.011692 -0.080078,-0.052734 L 6.8632812,2.0957031 v 2.1777344 c 0,0.00956 -0.00155,0.00522 0,0.00391 0.00155,-0.00131 -0.00121,0.00391 -0.017578,0.00391 H 6.2441406 c -0.011222,0 -0.010405,-0.00259 -0.00781,0 0.00259,0.00259 0,0.00341 0,-0.00781 V 1.265625 c 0,-0.00533 7.847e-4,-0.00798 0.00195,-0.00977 z"
           id="path858" />
        <path
           style="color:#000000;font-style:normal;font-variant:normal;font-weight:normal;font-stretch:normal;font-size:4.30829px;line-height:1.25;font-family:'Cocogoose Pro Block';-inkscape-font-specification:'Cocogoose Pro Block, Normal';font-variant-ligatures:normal;font-variant-position:normal;font-variant-caps:normal;font-variant-numeric:normal;font-variant-alternates:normal;font-variant-east-asian:normal;font-feature-settings:normal;font-variation-settings:normal;text-indent:0;text-align:start;text-decoration:none;text-decoration-line:none;text-decoration-style:solid;text-decoration-color:#000000;letter-spacing:0px;word-spacing:0px;text-transform:none;writing-mode:lr-tb;direction:ltr;text-orientation:mixed;dominant-baseline:auto;baseline-shift:baseline;text-anchor:start;white-space:normal;shape-padding:0;shape-margin:0;inline-size:0;clip-rule:nonzero;display:inline;overflow:visible;visibility:visible;opacity:1;isolation:auto;mix-blend-mode:normal;color-interpolation:sRGB;color-interpolation-filters:linearRGB;solid-color:#000000;solid-opacity:1;vector-effect:none;fill:#ffc815;fill-opacity:1;fill-rule:nonzero;stroke:none;stroke-width:0.107678;stroke-linecap:butt;stroke-linejoin:miter;stroke-miterlimit:4;stroke-dasharray:none;stroke-dashoffset:0;stroke-opacity:1;color-rendering:auto;image-rendering:auto;shape-rendering:auto;text-rendering:auto;enable-background:accumulate;stop-color:#000000;stop-opacity:1"
           d="m 10.837891,1.5039062 c -0.207286,0 -0.402605,0.039904 -0.585938,0.1191407 -0.182422,0.077298 -0.3439377,0.1833797 -0.4804686,0.3183593 v 0.00195 C 9.6365247,2.0783191 9.5299921,2.2351925 9.4511719,2.4160156 c -0.079301,0.181926 -0.1191407,0.378652 -0.1191407,0.5859375 0,0.2058409 0.039926,0.4007023 0.1191407,0.5839844 C 9.5299697,3.7667091 9.636649,3.9261148 9.7714844,4.0625 9.907942,4.1974071 10.069672,4.3059835 10.251953,4.3847656 10.435214,4.4624186 10.630739,4.5 10.837891,4.5 c 0.207151,0 0.402676,-0.037581 0.585937,-0.1152344 0.18228,-0.078782 0.344011,-0.1873585 0.480469,-0.3222656 0.136401,-0.1364009 0.243416,-0.2956727 0.322265,-0.4765625 0.07922,-0.1832821 0.119141,-0.3781435 0.119141,-0.5839844 0,-0.2058409 -0.03986,-0.4001568 -0.119141,-0.5820312 C 12.147691,2.2389805 12.040823,2.0802863 11.904297,1.9453125 11.767752,1.8087674 11.606369,1.7003947 11.423828,1.6230469 11.240495,1.5438098 11.045176,1.5039063 10.837891,1.5039062 Z m 0,0.1757813 c 0.184749,0 0.356859,0.034636 0.517578,0.1035156 0.163057,0.069263 0.305033,0.1644077 0.425781,0.2851563 0.120693,0.1192563 0.213981,0.258403 0.283203,0.4199218 h 0.002 c 0.07024,0.1591089 0.103516,0.3306125 0.103516,0.5136719 0,0.1830594 -0.03516,0.3529735 -0.105469,0.5136719 -0.06922,0.1615188 -0.16251,0.3026187 -0.283203,0.421875 -0.12084,0.1194019 -0.262453,0.2143325 -0.425781,0.2851562 -0.160719,0.06888 -0.332829,0.1035157 -0.517578,0.1035157 -0.184751,0 -0.357225,-0.034571 -0.519532,-0.1035157 C 10.157178,4.1535785 10.017065,4.0583129 9.8964844,3.9394531 9.7770073,3.8185366 9.6821357,3.6774709 9.6113281,3.515625 9.5424257,3.3548527 9.5078125,3.1851539 9.5078125,3.0019531 c 0,-0.1847497 0.034703,-0.3564963 0.1035156,-0.515625 C 9.6821121,2.3245362 9.7751848,2.1857527 9.8945312,2.0664062 10.015371,1.9470052 10.156663,1.8525016 10.318359,1.7832031 10.480666,1.7142583 10.65314,1.6796875 10.837891,1.6796875 Z m 0.002,0.5527344 c -0.105802,0 -0.205123,0.02005 -0.294922,0.0625 -0.08662,0.040333 -0.161796,0.097101 -0.22461,0.1679687 -0.06279,0.070848 -0.113384,0.153688 -0.148437,0.2460938 -0.03371,0.091497 -0.04883,0.1899352 -0.04883,0.2929687 0,0.1016284 0.01535,0.1989148 0.04883,0.2929688 v 0.00195 c 0.03496,0.092154 0.0834,0.1733528 0.144531,0.2441406 l 0.002,0.00195 c 0.06302,0.069484 0.137942,0.1242862 0.22461,0.1660156 0.0898,0.04245 0.18912,0.064453 0.294922,0.064453 0.105801,0 0.204463,-0.02184 0.292968,-0.064453 0.08691,-0.041846 0.161579,-0.098809 0.22461,-0.1699219 0.06295,-0.071019 0.112922,-0.1533954 0.146484,-0.2460937 0.03357,-0.092724 0.04883,-0.1893875 0.04883,-0.2910157 0,-0.1016282 -0.01516,-0.199614 -0.04883,-0.2910156 -0.03325,-0.091831 -0.08244,-0.1735721 -0.144531,-0.2441406 l -0.002,-0.00195 c -0.06132,-0.070433 -0.136471,-0.1284246 -0.222657,-0.1699219 -0.0885,-0.042613 -0.187167,-0.0625 -0.292968,-0.0625 z m 0,0.1738281 c 0.08096,0 0.152884,0.016872 0.216797,0.048828 0.06677,0.031341 0.122077,0.074914 0.167968,0.1289063 h 0.002 c 0.0475,0.052923 0.08504,0.1161064 0.111329,0.1894531 0.02621,0.071728 0.03906,0.1476312 0.03906,0.2285156 0,0.080884 -0.01274,0.1570576 -0.03906,0.2304688 -0.02629,0.071958 -0.0634,0.134684 -0.111329,0.1894531 h -0.002 c -0.04604,0.054161 -0.100861,0.09799 -0.167968,0.1308594 -0.06578,0.030875 -0.137486,0.044922 -0.21875,0.044922 -0.08126,0 -0.152973,-0.014047 -0.21875,-0.044922 -0.0675,-0.033063 -0.12419,-0.075773 -0.171875,-0.1289063 -0.04778,-0.054602 -0.085,-0.1179584 -0.111328,-0.1914062 -0.02632,-0.073412 -0.03906,-0.149583 -0.03906,-0.2304688 0,-0.082481 0.0129,-0.1588448 0.03906,-0.2304687 0.0278,-0.072283 0.06519,-0.1344927 0.113281,-0.1894532 0.04753,-0.054315 0.104978,-0.097506 0.171875,-0.1289062 0.06578,-0.030875 0.137485,-0.046875 0.21875,-0.046875 z"
           id="path862" />
        <path
           style="color:#000000;font-style:normal;font-variant:normal;font-weight:normal;font-stretch:normal;font-size:4.30829px;line-height:1.25;font-family:'Cocogoose Pro Block';-inkscape-font-specification:'Cocogoose Pro Block, Normal';font-variant-ligatures:normal;font-variant-position:normal;font-variant-caps:normal;font-variant-numeric:normal;font-variant-alternates:normal;font-variant-east-asian:normal;font-feature-settings:normal;font-variation-settings:normal;text-indent:0;text-align:start;text-decoration:none;text-decoration-line:none;text-decoration-style:solid;text-decoration-color:#000000;letter-spacing:0px;word-spacing:0px;text-transform:none;writing-mode:lr-tb;direction:ltr;text-orientation:mixed;dominant-baseline:auto;baseline-shift:baseline;text-anchor:start;white-space:normal;shape-padding:0;shape-margin:0;inline-size:0;clip-rule:nonzero;display:inline;overflow:visible;visibility:visible;opacity:1;isolation:auto;mix-blend-mode:normal;color-interpolation:sRGB;color-interpolation-filters:linearRGB;solid-color:#000000;solid-opacity:1;vector-effect:none;fill:#ffc815;fill-opacity:1;fill-rule:nonzero;stroke:none;stroke-width:0.107678;stroke-linecap:butt;stroke-linejoin:miter;stroke-miterlimit:4;stroke-dasharray:none;stroke-dashoffset:0;stroke-opacity:1;color-rendering:auto;image-rendering:auto;shape-rendering:auto;text-rendering:auto;enable-background:accumulate;stop-color:#000000;stop-opacity:1"
           d="m 13.490234,0.77929688 c -0.01197,0 -0.0245,0.002106 -0.03711,0.003906 h -0.002 c -0.01136,0.001895 -0.02306,0.004356 -0.03516,0.007813 l -0.564454,0.1875 c -0.05839,0.0183502 -0.105087,0.0411316 -0.132812,0.0839844 -0.02325,0.035941 -0.0332,0.078514 -0.0332,0.125 v 0.3554688 h -0.212891 c -0.04835,0 -0.09471,0.015524 -0.126953,0.048828 -0.03182,0.031821 -0.04687,0.076677 -0.04687,0.1230469 v 0.582031 c 0,0.049363 0.01204,0.096021 0.04492,0.1289062 0.03289,0.032885 0.07954,0.046875 0.128906,0.046875 h 0.212891 v 1.8007813 c 0,0.051607 0.01482,0.1007586 0.04883,0.1347656 0.03401,0.034007 0.08121,0.046875 0.132813,0.046875 h 0.644531 c 0.04949,0 0.094,-0.00844 0.128906,-0.035156 0.0444,-0.032558 0.05469,-0.086435 0.05469,-0.1464844 V 2.4726562 h 0.275391 c 0.04879,0 0.09456,-0.013874 0.126953,-0.046875 0.03239,-0.033001 0.04492,-0.079709 0.04492,-0.1289062 V 1.7148438 c 0,-0.041611 -0.01576,-0.081277 -0.04297,-0.1132813 -0.02997,-0.039189 -0.07828,-0.058594 -0.128906,-0.058594 H 13.695312 V 1 c 0,-0.0641168 -0.01831,-0.12291206 -0.06055,-0.16210938 -0.03901,-0.0370641 -0.09047,-0.0585937 -0.144532,-0.0585937 z m 0,0.17382812 c 0.0116,0 0.01426,5.8732e-4 0.02149,0.007813 0.0032,0.003188 0.0098,0.013238 0.0098,0.0390625 v 0.71875 h 0.445313 v 0.578125 H 13.521524 V 4.273438 c 0,0.010889 -0.0024,0.010164 0,0.00781 0.0024,-0.00235 0.0025,0 -0.0098,0 h -0.644531 c -0.01123,0 -0.0085,-0.00259 -0.0059,0 0.0026,0.00259 0,0.00341 0,-0.00781 V 2.296875 H 12.472656 V 1.71875 h 0.388672 V 1.1875 c 0,-0.010689 0.0015,-0.014142 0.0059,-0.019531 h 0.002 v -0.00195 c 0.0024,-0.00323 0.01505,-0.013883 0.03906,-0.023437 l 0.564453,-0.18554685 c 0.0064,-0.002416 0.01234,-0.003906 0.01758,-0.003906 z"
           id="path866" />
        <path
           style="color:#000000;font-style:normal;font-variant:normal;font-weight:normal;font-stretch:normal;font-size:4.30829px;line-height:1.25;font-family:'Cocogoose Pro Block';-inkscape-font-specification:'Cocogoose Pro Block, Normal';font-variant-ligatures:normal;font-variant-position:normal;font-variant-caps:normal;font-variant-numeric:normal;font-variant-alternates:normal;font-variant-east-asian:normal;font-feature-settings:normal;font-variation-settings:normal;text-indent:0;text-align:start;text-decoration:none;text-decoration-line:none;text-decoration-style:solid;text-decoration-color:#000000;letter-spacing:0px;word-spacing:0px;text-transform:none;writing-mode:lr-tb;direction:ltr;text-orientation:mixed;dominant-baseline:auto;baseline-shift:baseline;text-anchor:start;white-space:normal;shape-padding:0;shape-margin:0;inline-size:0;clip-rule:nonzero;display:inline;overflow:visible;visibility:visible;opacity:1;isolation:auto;mix-blend-mode:normal;color-interpolation:sRGB;color-interpolation-filters:linearRGB;solid-color:#000000;solid-opacity:1;vector-effect:none;fill:#ffc815;fill-opacity:1;fill-rule:nonzero;stroke:none;stroke-width:0.107678;stroke-linecap:butt;stroke-linejoin:miter;stroke-miterlimit:4;stroke-dasharray:none;stroke-dashoffset:0;stroke-opacity:1;color-rendering:auto;image-rendering:auto;shape-rendering:auto;text-rendering:auto;enable-background:accumulate;stop-color:#000000;stop-opacity:1"
           d="m 15.654297,1.5078125 c -0.217418,0 -0.419276,0.039683 -0.601563,0.1191406 V 1.625 c -0.179733,0.077471 -0.336108,0.1853536 -0.466796,0.3222656 -0.129055,0.1352737 -0.229597,0.2955053 -0.300782,0.4765625 -0.07136,0.1814895 -0.105468,0.3749118 -0.105468,0.5800781 0,0.2059759 0.04023,0.4000883 0.121093,0.5820313 v 0.00195 c 0.08186,0.1807208 0.192257,0.3383364 0.330078,0.4746094 0.137739,0.1346435 0.297353,0.2415219 0.476563,0.3203125 v 0.00195 C 15.288919,4.4623285 15.478732,4.5 15.675781,4.5 c 0.08714,0 0.174651,-0.00545 0.261719,-0.017578 0.08923,-0.010958 0.179459,-0.033394 0.269531,-0.064453 v 0.00195 c 0.09211,-0.029663 0.182792,-0.070574 0.275391,-0.1230469 l 0.002,-0.00195 c 0.09319,-0.054363 0.18636,-0.122432 0.28125,-0.2050781 0.04069,-0.035141 0.06836,-0.081954 0.06836,-0.1328126 0,-0.044873 -0.02054,-0.085231 -0.05078,-0.1289062 l -0.27544,-0.3828127 c -0.01642,-0.022571 -0.0383,-0.040314 -0.06445,-0.050781 -0.01985,-0.00794 -0.04106,-0.013679 -0.0625,-0.015625 h -0.002 -0.0039 c -0.02855,0 -0.05296,0.014667 -0.07813,0.027344 h -0.01758 l -0.01367,0.00977 c -6.73e-4,5.222e-4 -0.0013,0.00142 -0.002,0.00195 -0.03223,0.023134 -0.06437,0.047429 -0.09766,0.076172 v 0.00195 h -0.002 c -0.02722,0.024625 -0.06241,0.048089 -0.105468,0.070312 -0.03976,0.021203 -0.09164,0.040977 -0.154297,0.056641 -0.05968,0.014919 -0.136682,0.021484 -0.232422,0.021484 -0.05662,0 -0.112042,-0.00806 -0.166016,-0.025391 h -0.002 c -0.05303,-0.019207 -0.101715,-0.045566 -0.146484,-0.078125 -0.04531,-0.032954 -0.08513,-0.071536 -0.121094,-0.1171875 -0.01832,-0.023955 -0.02867,-0.052086 -0.04297,-0.078125 h 1.416016 c 0.06641,0 0.122881,-0.00551 0.171875,-0.013672 0.0511,-0.00852 0.09596,-0.023624 0.132812,-0.050781 l 0.002,-0.00195 c 0.03699,-0.029198 0.06339,-0.07031 0.07813,-0.1171875 v -0.00195 c 0.01586,-0.048387 0.02344,-0.1050937 0.02344,-0.1738281 0,-0.1747865 -0.02037,-0.3345553 -0.0625,-0.4765625 -0.04169,-0.1405142 -0.09788,-0.2653766 -0.169922,-0.375 C 16.715167,2.024339 16.633152,1.9295851 16.539062,1.8496094 16.447617,1.7705632 16.351613,1.7062749 16.25,1.65625 16.151076,1.6052426 16.050045,1.568444 15.947266,1.5449219 h -0.002 c -0.10157,-0.024479 -0.198499,-0.037109 -0.291015,-0.037109 z m 0,0.1738281 c 0.07897,0 0.162806,0.011635 0.251953,0.033203 0.08936,0.019857 0.178265,0.051828 0.265625,0.097656 0.08861,0.044303 0.17324,0.1007792 0.253906,0.1699219 v 0.00195 c 0.08079,0.068033 0.153204,0.1486162 0.214844,0.2460938 v 0.00195 c 0.06117,0.095305 0.110328,0.2042828 0.146484,0.3300781 v 0.00195 c 0.03714,0.1242903 0.05469,0.2646345 0.05469,0.421875 0,0.047166 -0.004,0.082324 -0.01172,0.1054688 -0.0077,0.023146 -0.01876,0.035766 -0.03125,0.044922 -0.01345,0.00986 -0.03495,0.020355 -0.06641,0.025391 -0.03171,0.00529 -0.07274,0.00781 -0.123047,0.00781 h -1.666016 l 0.01758,0.068359 c 0.02378,0.087177 0.05897,0.1661222 0.105468,0.2382813 0.04603,0.071433 0.100913,0.1340139 0.16211,0.1855469 0.06135,0.050054 0.130805,0.089739 0.205078,0.1171875 0.07617,0.027549 0.156006,0.041016 0.238281,0.041016 0.0936,0 0.17336,-0.00673 0.242187,-0.019531 h 0.002 c 0.06687,-0.013997 0.125306,-0.031567 0.175781,-0.052734 h 0.002 c 0.04858,-0.021942 0.09045,-0.046309 0.126953,-0.074219 l 0.002,-0.00195 c 0.03404,-0.025203 0.0678,-0.050339 0.09766,-0.074219 l 0.04492,-0.037109 0.002,-0.00195 c -0.0014,9.14e-4 -0.0016,-1e-7 0.0039,0 h 0.002 l 0.269531,0.3710937 h -0.002 c 0.01332,0.018865 0.01505,0.026704 0.01563,0.023437 -0.0017,0.00197 -0.0042,0.00412 -0.0059,0.00586 -0.08456,0.071436 -0.16844,0.1302178 -0.251953,0.1777344 -0.08276,0.046464 -0.164001,0.084476 -0.246094,0.1132812 -0.08249,0.027497 -0.163297,0.047119 -0.242188,0.058594 -0.07984,0.011613 -0.1578,0.017578 -0.234375,0.017578 -0.173889,0 -0.340493,-0.03454 -0.5,-0.1035157 C 15.015658,4.1533465 14.876535,4.0590511 14.75405,3.9394484 14.631575,3.8184141 14.533275,3.6778424 14.461082,3.5175734 14.389372,3.3569459 14.35366,3.1868197 14.35366,3.0039015 c 0,-0.1837661 0.03247,-0.3541621 0.0957,-0.5136718 0.06347,-0.1615508 0.152342,-0.3028568 0.265625,-0.421875 0.11463,-0.1203621 0.250284,-0.2140693 0.410156,-0.2832032 0.158804,-0.068672 0.33527,-0.1035156 0.529297,-0.1035156 z m -0.02539,0.4765625 c -0.071,0 -0.140309,0.01249 -0.205078,0.039063 -0.06361,0.026097 -0.122294,0.06204 -0.175781,0.1074219 v 0.00195 c -0.05131,0.044894 -0.09804,0.096306 -0.140625,0.15625 l -0.002,0.00195 c -0.0406,0.059346 -0.0763,0.122538 -0.107422,0.1894531 l -0.03516,0.076172 h 1.359375 l -0.0332,-0.076172 C 16.219158,2.4989541 16.126417,2.3767425 16.013672,2.2910156 15.901704,2.2033889 15.771561,2.1582031 15.628907,2.1582031 Z m 0,0.1738281 c 0.09986,3e-7 0.185569,0.026954 0.263672,0.078125 0.05066,0.03319 0.08614,0.09171 0.125,0.1445313 h -0.753906 c 0.03491,-0.050209 0.0669,-0.1056205 0.113281,-0.140625 0.06969,-0.053913 0.151197,-0.082031 0.251953,-0.082031 z"
           id="path870" />
        <path
           style="color:#000000;font-style:normal;font-variant:normal;font-weight:normal;font-stretch:normal;font-size:4.30829px;line-height:1.25;font-family:'Cocogoose Pro Block';-inkscape-font-specification:'Cocogoose Pro Block, Normal';font-variant-ligatures:normal;font-variant-position:normal;font-variant-caps:normal;font-variant-numeric:normal;font-variant-alternates:normal;font-variant-east-asian:normal;font-feature-settings:normal;font-variation-settings:normal;text-indent:0;text-align:start;text-decoration:none;text-decoration-line:none;text-decoration-style:solid;text-decoration-color:#000000;letter-spacing:0px;word-spacing:0px;text-transform:none;writing-mode:lr-tb;direction:ltr;text-orientation:mixed;dominant-baseline:auto;baseline-shift:baseline;text-anchor:start;white-space:normal;shape-padding:0;shape-margin:0;inline-size:0;clip-rule:nonzero;display:inline;overflow:visible;visibility:visible;opacity:1;isolation:auto;mix-blend-mode:normal;color-interpolation:sRGB;color-interpolation-filters:linearRGB;solid-color:#000000;solid-opacity:1;vector-effect:none;fill:#ffc815;fill-opacity:1;fill-rule:nonzero;stroke:none;stroke-width:0.107678;stroke-linecap:butt;stroke-linejoin:miter;stroke-miterlimit:4;stroke-dasharray:none;stroke-dashoffset:0;stroke-opacity:1;color-rendering:auto;image-rendering:auto;shape-rendering:auto;text-rendering:auto;enable-background:accumulate;stop-color:#000000;stop-opacity:1"
           d="m 18.416016,1.4921875 c -0.173329,0 -0.328977,0.020215 -0.466797,0.0625 -0.13686,0.041991 -0.254278,0.1011828 -0.351563,0.1777344 -0.09551,0.076407 -0.169302,0.1674311 -0.220703,0.2734375 -0.04993,0.1046914 -0.07617,0.2193849 -0.07617,0.3417968 0,0.1343314 0.07556,0.2220844 0.115235,0.3320313 3.59e-4,0.00115 -3.64e-4,0.00276 0,0.00391 4.77e-4,0.00141 0.0015,0.0025 0.002,0.00391 0.03652,0.098402 0.03455,0.2223683 0.103515,0.2988281 0.147533,0.1618106 0.361577,0.2834098 0.638672,0.3691407 0.07877,0.023779 0.143698,0.044971 0.19336,0.0625 0.05056,0.017335 0.08969,0.034779 0.115234,0.048828 0.02473,0.0136 0.03795,0.02504 0.04297,0.033203 l 0.002,0.00195 c 0.0055,0.00819 0.0078,0.01817 0.0078,0.035156 0,0.030522 -0.0075,0.050823 -0.0332,0.072266 h -0.002 c -0.01458,0.012679 -0.07152,0.03125 -0.167969,0.03125 -0.04048,0 -0.08218,-0.0054 -0.123047,-0.015625 -0.0413,-0.012389 -0.0829,-0.027634 -0.123046,-0.046875 l -0.002,-0.00195 c -0.03863,-0.020813 -0.07775,-0.044013 -0.115234,-0.070312 h -0.002 c -0.03691,-0.027036 -0.07097,-0.056217 -0.103516,-0.085937 v -0.00195 c -0.04328,-0.038086 -0.09172,-0.0625 -0.142578,-0.0625 -0.03073,0 -0.05576,0.02115 -0.08203,0.037109 -0.011,0.00668 -0.02574,0.00471 -0.03516,0.013672 -0.0011,0.00104 -0.0028,8.878e-4 -0.0039,0.00195 L 17.494141,3.5 17.283203,3.703125 c -0.02335,0.023351 -0.0418,0.049699 -0.05273,0.078125 -0.0095,0.024627 -0.01367,0.048789 -0.01367,0.074219 0,0.032822 0.0071,0.06501 0.02148,0.09375 v 0.00195 c 0.01209,0.022452 0.02718,0.045185 0.04492,0.066406 6.11e-4,7.703e-4 0.0013,0.00118 0.002,0.00195 l 0.01367,0.015625 h 0.002 c 0.07255,0.088385 0.150482,0.1665707 0.232422,0.2265626 0.08703,0.062163 0.177515,0.1128025 0.271485,0.1503906 0.0944,0.03714 0.191232,0.062047 0.289062,0.076172 0.09695,0.015388 0.193421,0.023437 0.289062,0.023438 0.144333,0 0.284589,-0.0205 0.419922,-0.0625 0.135754,-0.042131 0.257703,-0.1055582 0.363282,-0.1875 0.107525,-0.083808 0.192565,-0.1863877 0.255859,-0.3066407 0.06583,-0.123636 0.09961,-0.2643921 0.09961,-0.4199219 0,-0.087618 -0.01065,-0.1754939 -0.0293,-0.265625 -0.01918,-0.094315 -0.05641,-0.1862039 -0.111329,-0.2714843 l -0.002,-0.00195 C 19.323998,2.9095133 19.24669,2.8292264 19.150433,2.75781 c -0.09881,-0.073313 -0.222982,-0.1329208 -0.375,-0.1835937 -0.09648,-0.031659 -0.179666,-0.057824 -0.25,-0.076172 -0.06675,-0.019282 -0.120047,-0.036276 -0.16211,-0.050781 v 0.00195 c -0.03883,-0.014731 -0.06453,-0.029809 -0.07813,-0.041016 l -0.002,-0.00195 c -0.0076,-0.00756 -0.0098,-0.012629 -0.0098,-0.025391 0,-9.62e-5 -0.0019,-0.00672 0.02539,-0.021484 h 0.002 c 0.02213,-0.012908 0.06855,-0.023437 0.136719,-0.023437 0.03574,0 0.06691,0.00296 0.0957,0.011719 l 0.002,0.00195 c 0.03013,0.00786 0.05809,0.017389 0.08203,0.03125 v 0.00195 h 0.002 c 0.02703,0.013515 0.05158,0.029568 0.07422,0.046875 0.02503,0.019136 0.04876,0.037541 0.07227,0.056641 l 0.002,0.00195 h 0.002 c 0.01755,0.012768 0.03423,0.025229 0.05078,0.035156 h 0.002 l 0.002,0.00195 c 0.02202,0.01101 0.0457,0.015625 0.07031,0.015625 0.02079,0 0.04097,-0.0041 0.06055,-0.011719 0.02377,-0.00864 0.04655,-0.023321 0.06641,-0.041016 l 0.002,-0.00195 0.330078,-0.2890625 c 0.04402,-0.040502 0.0738,-0.088719 0.07813,-0.1425781 v -0.00195 -0.00195 c 0,-0.019677 -0.02019,-0.034669 -0.02734,-0.052734 h 0.0625 l -0.111328,-0.09375 -0.0293,-0.025391 -0.002,-0.00195 c -0.04312,-0.040074 -0.09114,-0.082322 -0.142578,-0.125 L 19.179688,1.75 C 19.124718,1.703166 19.060787,1.659983 18.990234,1.6230469 h -0.002 c -0.07311,-0.039541 -0.155244,-0.070549 -0.248047,-0.09375 -0.09412,-0.025523 -0.202405,-0.037109 -0.324218,-0.037109 z m 0,0.1738281 c 0.108606,0 0.20328,0.010366 0.28125,0.03125 0.08194,0.021563 0.152995,0.049995 0.21289,0.082031 0.06277,0.032811 0.116198,0.068468 0.16211,0.1074219 0.01158,0.00982 0.02205,0.017697 0.0332,0.027344 0.01434,0.012407 0.02738,0.024995 0.04102,0.037109 l 0.08984,0.082031 v 0.00195 c 0.01638,0.014448 0.01512,0.015003 0.01563,0.011719 -0.0045,0.00639 -0.0121,0.015305 -0.02344,0.027344 -0.02742,0.027421 -0.0594,0.057952 -0.09766,0.091797 -0.03838,0.033952 -0.07774,0.069508 -0.11914,0.1035156 -0.0061,0.00505 -0.0098,0.00693 -0.01563,0.011719 v -0.011719 l -0.08789,0.083984 h -0.002 c -0.01069,0.00987 -0.0088,0.0093 -0.0078,0.00977 -0.0048,-0.00316 -0.01084,-0.00661 -0.01953,-0.013672 -0.02738,-0.022815 -0.05461,-0.045082 -0.08203,-0.066406 -0.02993,-0.02327 -0.06183,-0.042633 -0.09766,-0.060547 -0.03535,-0.018514 -0.07302,-0.033556 -0.115235,-0.044922 -0.04442,-0.011958 -0.09331,-0.017578 -0.146484,-0.017578 -0.102192,0 -0.186366,0.018164 -0.248047,0.0625 -0.05463,0.03932 -0.0918,0.096212 -0.0918,0.1582032 0,0.039436 0.0074,0.075931 0.02539,0.1074218 0.0171,0.029934 0.04327,0.054197 0.07422,0.074219 h 0.002 v 0.00195 c 0.03063,0.017015 0.06753,0.033186 0.111328,0.048828 h 0.002 c 0.04377,0.013585 0.09667,0.028866 0.158203,0.046875 l 0.248047,0.078125 c 0.130527,0.044959 0.235194,0.098973 0.314453,0.1601563 0.08267,0.061289 0.14612,0.1266967 0.191406,0.1953125 0.04611,0.069863 0.0773,0.1408304 0.09375,0.2148438 v 0.00195 c 0.01853,0.076957 0.02734,0.1513072 0.02734,0.2246093 0,0.128439 -0.02641,0.2401865 -0.08008,0.3378907 h -0.002 c -0.05344,0.099841 -0.1225,0.1831685 -0.210938,0.2519531 -0.08901,0.06782 -0.191239,0.1209929 -0.308593,0.1582031 -0.115981,0.035796 -0.236339,0.052734 -0.361329,0.052734 -0.08552,0 -0.170616,-0.00645 -0.257812,-0.019531 C 18.039092,4.30352 17.954378,4.2815907 17.871094,4.25 17.789997,4.2172766 17.712756,4.1736576 17.636719,4.1191406 v 0.00195 C 17.561754,4.065931 17.489641,3.9952241 17.421875,3.9101562 l -0.01367,-0.017578 c -0.0039,-0.00522 -0.0084,-0.010731 -0.01172,-0.015625 V 3.875 c -0.0035,-0.00748 -0.0059,-0.014052 -0.0059,-0.019531 0,-0.00171 0.0011,-0.00887 0.01758,-0.025391 L 17.5,3.7382812 17.707031,3.5332031 c 0,0 0.002,0 0.002,0 l 0.002,0.00195 c 0.008,0.00398 0.01422,0.00744 0.02148,0.013672 l 0.002,0.00195 c 0.03821,0.032097 0.07847,0.063735 0.121094,0.095703 h 0.002 c 0.04524,0.031199 0.09025,0.060948 0.138672,0.085937 0.04923,0.025409 0.101781,0.044633 0.154297,0.060547 l 0.002,0.00195 c 0.05515,0.014599 0.110405,0.021484 0.166015,0.021484 0.06766,0 0.124942,-0.00556 0.173829,-0.019531 0.04669,-0.013339 0.08552,-0.032861 0.117187,-0.058594 0.03135,-0.025812 0.05574,-0.056952 0.06836,-0.09375 v -0.00195 c 0.01258,-0.033019 0.01953,-0.068729 0.01953,-0.1054687 0,-0.041884 -0.0073,-0.079019 -0.02344,-0.1132813 -0.01764,-0.037485 -0.04719,-0.069095 -0.08594,-0.09375 -0.03821,-0.024314 -0.08776,-0.044623 -0.148438,-0.066406 -0.05997,-0.02153 -0.137034,-0.047093 -0.230469,-0.074219 C 18.07888,3.1514448 17.967931,3.1061565 17.875,3.0546875 17.782335,3.0033664 17.706592,2.9453717 17.648438,2.8789062 17.590244,2.8124004 17.546847,2.7368071 17.517578,2.6503906 h 0.002 c -0.02796,-0.088058 -0.04297,-0.1890991 -0.04297,-0.3027344 0,-0.098881 0.02079,-0.1872664 0.06055,-0.2695312 h -0.002 c 0.04108,-0.082158 0.100406,-0.1511278 0.179688,-0.2109375 l 0.002,-0.00195 c 0.07929,-0.061204 0.175401,-0.1086872 0.292969,-0.1445313 0.118159,-0.03559 0.253449,-0.054687 0.40625,-0.054687 z"
           id="path874" />
      </g>
      <g
         id="g933"
         transform="matrix(0.0865763,0,0,0.0865763,13.532,-37.733825)">
        <rect
           style="fill:none;fill-opacity:1;stroke:#f97171;stroke-width:2.913;stroke-miterlimit:4;stroke-dasharray:none;stroke-opacity:1"
           id="rect921"
           width="26.458334"
           height="26.458334"
           x="-123.09519"
           y="437.30124"
           ry="5.0234289" />
        <rect
           style="fill:none;fill-opacity:1;stroke:#60a3f7;stroke-width:2.913;stroke-miterlimit:4;stroke-dasharray:none;stroke-opacity:1"
           id="rect923"
           width="26.458334"
           height="26.458334"
           x="-123.09519"
           y="469.05133"
           ry="5.0234289" />
        <rect
           style="fill:none;fill-opacity:1;stroke:#ffc815;stroke-width:2.913;stroke-miterlimit:4;stroke-dasharray:none;stroke-opacity:1"
           id="rect925"
           width="26.458334"
           height="26.458334"
           x="-154.84511"
           y="437.30124"
           ry="5.0234289" />
        <rect
           style="fill:none;fill-opacity:1;stroke:#2dd49c;stroke-width:2.913;stroke-miterlimit:4;stroke-dasharray:none;stroke-opacity:1"
           id="rect927"
           width="26.458334"
           height="26.458334"
           x="-154.84511"
           y="469.05133"
           ry="5.0234289" />
      </g>
    </g>
  </g>
</svg>
